<?xml version="1.0" standalone="no"?>
<!DOCTYPE svg PUBLIC "-//W3C//DTD SVG 20010904//EN"
 "http://www.w3.org/TR/2001/REC-SVG-20010904/DTD/svg10.dtd">
<svg version="1.0" xmlns="http://www.w3.org/2000/svg"
 width="160.000000pt" height="160.000000pt" viewBox="0 0 160.000000 160.000000"
 preserveAspectRatio="xMidYMid meet">
<metadata>
Created by potrace 1.14, written by Peter Selinger 2001-2017
</metadata>
<g transform="translate(0.000000,160.000000) scale(0.100000,-0.100000)"
fill="#000000" stroke="none">
<path d="M611 1442 c-13 -25 -14 -42 -2 -42 8 0 23 52 16 58 -2 2 -8 -5 -14
-16z"/>
<path d="M735 1416 c-17 -12 -16 -13 11 -20 16 -4 37 -9 47 -12 15 -5 16 -2 6
20 -13 29 -36 33 -64 12z"/>
<path d="M461 1349 c-46 -14 -34 -21 15 -8 178 50 393 -116 436 -337 12 -66
15 -332 4 -436 -5 -43 -4 -68 2 -68 14 0 26 307 17 411 -14 158 -46 239 -133
331 -85 91 -237 139 -341 107z"/>
<path d="M1085 1296 c22 -23 29 -48 39 -151 2 -22 3 -7 2 33 -1 99 16 95 53
-13 l20 -60 1 48 c0 64 -28 117 -78 145 -52 29 -67 28 -37 -2z"/>
<path d="M1171 765 c-1 -11 4 -37 9 -57 12 -43 135 -296 125 -258 -3 14 -29
73 -56 131 -28 59 -56 128 -64 155 -7 27 -14 40 -14 29z"/>
<path d="M1140 647 c0 -4 12 -25 26 -46 14 -22 37 -66 50 -98 19 -44 23 -49
18 -23 -3 19 -17 55 -29 80 -23 46 -64 101 -65 87z"/>
<path d="M1241 414 c0 -11 3 -14 6 -6 3 7 2 16 -1 19 -3 4 -6 -2 -5 -13z"/>
<path d="M700 90 c-9 -6 -10 -10 -3 -10 6 0 15 5 18 10 8 12 4 12 -15 0z"/>
</g>
</svg>
